<?xml version="1.0" encoding="utf-8"?>
<!-- Generator: Adobe Illustrator 23.0.0, SVG Export Plug-In . SVG Version: 6.00 Build 0)  -->
<svg version="1.1" id="Capa_1" xmlns="http://www.w3.org/2000/svg" xmlns:xlink="http://www.w3.org/1999/xlink" x="0px" y="0px"
	 viewBox="0 0 1920 1080" style="enable-background:new 0 0 1920 1080;" xml:space="preserve">
<style type="text/css">
	.st0{fill:#FFFFFF;}
</style>
<g>
	<path class="st0" d="M1449.9,521.7h-67.7v-44.8h54.1c14.3,0,25.9-11.6,25.9-25.9s-11.6-25.9-25.9-25.9h-54.1v-44.7h67.7
		c28.6,0,51.8-23.2,51.8-51.8h-145.3c-14.3,0-25.9,11.6-25.9,25.9v192.9c0,14.3,11.6,25.9,25.9,25.9h145.3
		C1501.6,544.8,1478.4,521.7,1449.9,521.7z"/>
	<g>
		<path class="st0" d="M977.2,573.4h-98.5l0,0c0-28.6,23.2-51.8,51.8-51.8h48.3c10.7,0,20.4-7.2,22.5-17.7
			c2.9-14.4-8-27.1-21.9-27.1h-34.3c-39.9,0-74.2-30.6-76.2-70.4c-2.1-42.6,31.9-77.8,74-77.8h99.1l0,0c0,28.6-23.2,51.8-51.8,51.8
			h-46.7c-10.7,0-20.4,7.2-22.5,17.7c-2.9,14.4,8,27,21.9,27h36.4c42.1,0,76.1,35.3,74,77.9C1051.4,542.9,1017.1,573.4,977.2,573.4z
			"/>
	</g>
	<g>
		<path class="st0" d="M1705.2,573.4h-65.4c-66.3,0-122.8-51.4-125.3-117.6c-2.6-69.6,53.2-127.1,122.3-127.1h68.4l0,0
			c0,28.6-23.2,51.8-51.8,51.8h-14.5c-36.7,0-68.9,27.2-72.3,63.8c-4,42,29.1,77.4,70.3,77.4h16.6
			C1682,521.7,1705.2,544.8,1705.2,573.4L1705.2,573.4z"/>
	</g>
	<path class="st0" d="M1289.9,399.1c-2-39.8-36.3-70.4-76.2-70.4h-111.4v14.2c0,20.8,16.8,37.6,37.6,37.6h14.1l0,0h61.2
		c12.1,0,22.4,9.4,22.9,21.5c0.5,12.7-9.7,23.2-22.3,23.2h-61.7H1140c-20.8,0-37.6,16.8-37.6,37.6v88.3c0,14,10.9,26,24.9,26.5
		c14.7,0.5,26.8-11.3,26.8-25.9v-74.8h61.8C1258,476.9,1292,441.7,1289.9,399.1z"/>
</g>
<g>
	<path class="st0" d="M530.2,334.5c90.5,0,165.2-68.6,175-156.5H441.4c-90.5,0-165.2,68.6-175,156.5H530.2z"/>
	<path class="st0" d="M441.4,571.7c-90.5,0-165.2,68.6-175,156.5h263.8c90.5,0,165.2-68.6,175-156.5H441.4z"/>
	<path class="st0" d="M441.4,531.3c-90.5,0-165.2-68.6-175-156.5h263.8c90.5,0,165.2,68.6,175,156.5H441.4z"/>
</g>
</svg>
