<?xml version="1.0" encoding="utf-8"?>
<!-- Generator: Adobe Illustrator 26.3.1, SVG Export Plug-In . SVG Version: 6.00 Build 0)  -->
<svg version="1.1" id="Capa_1" xmlns="http://www.w3.org/2000/svg" xmlns:xlink="http://www.w3.org/1999/xlink" x="0px" y="0px"
	 viewBox="0 0 1920 1080" style="enable-background:new 0 0 1920 1080;" xml:space="preserve">
<style type="text/css">
	.st0{fill:#FFFFFF;}
</style>
<g>
	<g>
		<g>
			<path class="st0" d="M309.9,933.8c-21.9,0-33-13.2-33-39.5v-53h11.2v51.8c0,22,5.1,30.6,21.7,30.6c16.5,0,21.7-8.7,21.7-30.6
				v-51.8h11.1v53C342.7,920.6,331.6,933.8,309.9,933.8z"/>
			<path class="st0" d="M402.7,932v-42.9c0-12.2-2-16.6-11.2-16.6c-5.3,0-12.2,2.1-21.1,6V932h-10.9v-67.2h10.9v5.2
				c7.8-4,14.9-7,22.4-7c17.8,0,21,9.7,21,26V932H402.7z"/>
			<path class="st0" d="M467.9,932v-4.5c-4,2.8-11.4,6.2-21.4,6.2c-12.6,0-20-5.6-20-19.1v-2.4c0-17.7,12.1-20.8,30.9-20.8h10v-4.9
				c0-11.6-2.3-14.2-15.8-14.2c-7.5,0-13.4,0.6-20.8,1.5v-7.8c2-0.7,11.2-2.9,21.6-2.9c22.4,0,25.9,8.2,25.9,23.5V932H467.9z
				 M467.4,899.8h-10c-14.2,0-19.9,1.7-19.9,12.5v3.3c0,7.6,4.6,9.7,11.2,9.7c7.9,0,15.9-3.5,18.7-5.4V899.8z"/>
			<path class="st0" d="M523.1,902.5v1.3c0,11.6,1.7,20.4,20.3,20.4c7.5,0,17.1-0.9,23.5-2v8.8c-4.6,1.2-12.8,2.7-23.9,2.7
				c-23.8,0-30.8-10.6-30.8-32.4v-5.1c0-21.1,9.4-33.1,28.5-33.1c19.8,0,28.8,11.8,28.8,34.5v4.9H523.1z M558,892.2
				c0-8.2-1.7-19.5-17.3-19.5c-15.4,0-17.5,11.4-17.5,19.5v1.2H558V892.2z"/>
			<path class="st0" d="M658.1,932v-44.6c0-9.4,0-14.9-10-14.9c-4.6,0-11.1,2.2-17,5.6c0.5,3.2,0.5,6.4,0.5,9.3V932h-11v-44.6
				c0-9.4,0-14.9-9.2-14.9c-5.9,0-12.6,3.1-17.5,5.9V932h-10.9v-67.2h10.9v5.2c5.5-4,12.5-7,20-7c7.8,0,12.2,2.8,14.8,7.2
				c7.8-5.2,14.7-7.2,20.8-7.2c19.5,0,19.5,13.9,19.5,24.3V932H658.1z"/>
			<path class="st0" d="M711.1,933.8c-4.5,0-10.9-0.8-15-2v25.9h-10.9v-92.9h10.5v4.5c6-4.2,13.1-6.2,19.5-6.2
				c15.4,0,24.3,8.7,24.3,31.3v6.6C739.5,926.9,727.2,933.8,711.1,933.8z M728.7,894.4c0-16.5-5.1-21.6-15.1-21.6
				c-5.3,0-9.5,1.1-17.5,5v44.8c5.5,1.1,10.5,1.8,15,1.8c10.8,0,17.6-3.8,17.6-23.5V894.4z"/>
			<path class="st0" d="M764.1,878.7V932h-10.9v-67.2H764v5.4c6.4-5,14.5-7.1,23.9-7.1v9.8C779.1,872.9,769.2,875.4,764.1,878.7z"/>
			<path class="st0" d="M803.1,902.5v1.3c0,11.6,1.7,20.4,20.3,20.4c7.5,0,17.1-0.9,23.5-2v8.8c-4.6,1.2-12.8,2.7-23.9,2.7
				c-23.8,0-30.8-10.6-30.8-32.4v-5.1c0-21.1,9.4-33.1,28.5-33.1c19.8,0,28.8,11.8,28.8,34.5v4.9H803.1z M838.1,892.2
				c0-8.2-1.7-19.5-17.3-19.5c-15.4,0-17.5,11.4-17.5,19.5v1.2h34.8V892.2z"/>
			<path class="st0" d="M882.7,933.8c-9.4,0-19.8-2-22-2.7v-8.4c4,0.4,13.6,1.7,21.6,1.7c11.5,0,14.4-3.2,14.4-9
				c0-6-2.1-7.8-13.6-12.7l-4.9-2.1c-13-5.5-18.4-11-18.4-20.7c0-11.2,7.5-16.7,24.3-16.7c9,0,17.8,1.6,20.3,2.4v8.2
				c-7.1-0.8-15.1-1.2-19.8-1.2c-9.8,0-13.8,1.2-13.8,7.3c0,5.3,2.2,7.5,11.7,11.6l4.9,2.1c15.6,7,20.3,11.1,20.3,21.5
				C907.7,924.7,902.6,933.8,882.7,933.8z"/>
			<path class="st0" d="M957.7,932v-4.5c-4,2.8-11.4,6.2-21.4,6.2c-12.6,0-20-5.6-20-19.1v-2.4c0-17.7,12.1-20.8,30.9-20.8h10v-4.9
				c0-11.6-2.3-14.2-15.8-14.2c-7.5,0-13.4,0.6-20.8,1.5v-7.8c2-0.7,11.2-2.9,21.6-2.9c22.4,0,25.9,8.2,25.9,23.5V932H957.7z
				 M957.2,899.8h-10c-14.2,0-19.9,1.7-19.9,12.5v3.3c0,7.6,4.6,9.7,11.2,9.7c7.9,0,15.9-3.5,18.7-5.4V899.8z"/>
		</g>
		<g id="XMLID_00000001652140640151683540000008372382531504001966_">
			<g id="XMLID_00000111172835622216064770000009497690970374765466_">
				<g id="XMLID_00000066504847557385895100000015277973290781481123_">
					<path id="XMLID_00000078753788598637253370000005026490934903791540_" class="st0" d="M1041.1,901.6v32.1h-14V833h36.5
						c22.3,0,33,10.9,33,33.2c0,22.3-10.7,35.3-33,35.3H1041.1z M1063.6,888.1c12.9,0,18.7-8.4,18.7-21.9c0-13.5-5.8-19.8-18.7-19.8
						h-22.5v41.6H1063.6z"/>
					<path id="XMLID_00000159460945766269486740000004437067786766772379_" class="st0" d="M1153.6,897.4h-25.4v36.3h-14.1V833h37.5
						c22.2,0,32.9,9.3,32.9,31.5c0,15.4-5.5,24.5-17.1,29.1l17.7,40h-15.5L1153.6,897.4z M1151.7,846.4h-23.5v37.7h23.6
						c13.7,0,18.3-7.7,18.3-19.3C1170.1,852.3,1164.1,846.4,1151.7,846.4z"/>
					<path id="XMLID_00000150088034615598871750000004223589440611076513_" class="st0" d="M1198.9,883.9c0-33.3,9-52.5,40-52.5
						c31,0,40.2,19,40.2,52.5c0,34.2-9,51.3-40.2,51.3C1207.9,935.2,1198.9,917.5,1198.9,883.9z M1264.5,883.9
						c0-24.9-4.8-38.8-25.5-38.8c-20.7,0-25.5,13.8-25.5,38.8c0,25.2,4.7,37.7,25.5,37.7C1260,921.6,1264.5,909.7,1264.5,883.9z"/>
					<path id="XMLID_00000167355065923489207320000015295546151231212952_" class="st0" d="M1298.1,833h23.6l25.9,80.6l26.1-80.6
						h23.3v100.6H1383v-83.5h-2.2l-25.8,79.7h-14.9l-25.8-79.7h-2.2v83.5h-14.1V833z"/>
					<path id="XMLID_00000056396205896665183570000017628072167266284196_" class="st0" d="M1420.7,833h14.1v100.6h-14.1V833z"/>
					<path id="XMLID_00000115494076503265895600000014107221109938981518_" class="st0" d="M1497.7,881.7h28v50
						c0,0-20.6,3.5-32.9,3.5c-30.7,0-39.4-18.8-39.4-51.9c0-34.2,9.1-51.9,39-51.9c15.2,0,33.4,4.1,33.4,4.1l-0.6,12.3
						c0,0-17.7-2.6-30.9-2.6c-21.2,0-26.4,11-26.4,38.1c0,26.7,4.5,38.3,25.9,38.3c7.7,0,17.5-1.6,18-1.6v-25.6h-14.1V881.7z"/>
					<path id="XMLID_00000176763878176789428310000003721146423040856485_" class="st0" d="M1563.5,833h28.8l25.5,100.5h-14.2
						l-6.5-22.5H1558l-6.2,22.6h-14.1L1563.5,833z M1561,897.5h33.2l-12.9-51.5h-7.1L1561,897.5z"/>
					<path id="XMLID_00000098209978056874926460000016355054626396568706_" class="st0" d="M1689.9,847.4c0,0-20.3-2.4-28.7-2.4
						c-13,0-19.7,4.3-19.7,14.1c0,10.8,5.9,13.1,23,17.3c20.5,5.4,28.6,10.7,28.6,28.4c0,21.3-13,30.4-33.3,30.4
						c-10.9,0-30.6-3.3-30.6-3.3l1.5-12.8c0,0,18.7,2.5,29,2.5c13.1,0,19.4-4.5,19.4-16.4c0-9.6-5.1-12.6-20.7-16.2
						c-21.3-4.9-31-10.9-31-29.6c0-19,13-28,33.9-28c11.2,0,29.9,3.3,29.9,3.3L1689.9,847.4z"/>
				</g>
			</g>
		</g>
	</g>
	<g>
		<g>
			<g>
				<path class="st0" d="M1248.4,729c-7.7,0-15.2-3.4-20.2-9.6l-109.4-135.8v119.6c0,14.3-11.6,25.9-25.9,25.9l0,0
					c-14.3,0-25.9-11.6-25.9-25.9l0-192c0-9.2,4.3-18.1,12.1-22.9c11.4-7.1,25.8-4.3,33.9,5.7l109.4,135.8V510.2
					c0-14.3,11.6-25.9,25.9-25.9h0c14.3,0,25.9,11.6,25.9,25.9l0,191.7c0,9.9-5,19.5-13.8,24.1C1256.7,728,1252.5,729,1248.4,729z"
					/>
			</g>
			<g>
				<path class="st0" d="M1490.1,729h-51c-66.3,0-122.8-51.4-125.3-117.6c-2.6-69.6,53.2-127.1,122.3-127.1h79.9v0
					c0,28.6-23.2,51.8-51.8,51.8h-26c-36.7,0-68.9,27.2-72.3,63.8c-4,42,29.1,77.4,70.3,77.4h28.1v-44.7h-29.4
					c-14.3,0-25.9-11.6-25.9-25.9v0c0-14.3,11.6-25.9,25.9-25.9h55.3c14.3,0,25.9,11.6,25.9,25.9v96.5
					C1515.9,717.4,1504.3,729,1490.1,729z"/>
			</g>
			<g>
				<path class="st0" d="M1032.8,729H882.6c-14.3,0-25.9-11.6-25.9-25.9V484.3h0c28.6,0,51.8,23.2,51.8,51.8v141.2H981
					C1009.6,677.3,1032.8,700.4,1032.8,729L1032.8,729z"/>
			</g>
		</g>
		<g>
			<path class="st0" d="M1437.8,371.8h-67.7V327h54.1c14.3,0,25.9-11.6,25.9-25.9c0-14.3-11.6-25.9-25.9-25.9h-54.1v-44.7h67.7
				c28.6,0,51.8-23.2,51.8-51.8h-145.3c-14.3,0-25.9,11.6-25.9,25.9v192.9c0,14.3,11.6,25.9,25.9,25.9h145.3
				C1489.5,394.9,1466.3,371.8,1437.8,371.8z"/>
			<g>
				<path class="st0" d="M965.1,423.5h-98.5v0c0-28.6,23.2-51.8,51.8-51.8l48.3,0c10.7,0,20.4-7.2,22.5-17.7
					c2.9-14.4-8-27.1-21.9-27.1H933c-39.9,0-74.2-30.6-76.2-70.4c-2.1-42.6,31.9-77.8,74-77.8h99.1v0c0,28.6-23.2,51.8-51.8,51.8
					l-46.7,0c-10.7,0-20.4,7.2-22.5,17.7c-2.9,14.4,8,27,21.9,27h36.4c42.1,0,76.1,35.3,74,77.9C1039.3,393,1005,423.5,965.1,423.5z
					"/>
			</g>
			<g>
				<path class="st0" d="M1693.1,423.5l-65.4,0c-66.3,0-122.8-51.4-125.3-117.6c-2.6-69.6,53.2-127.1,122.3-127.1h68.4v0
					c0,28.6-23.2,51.8-51.8,51.8h-14.5c-36.7,0-68.9,27.2-72.3,63.8c-4,42,29.1,77.4,70.3,77.4h16.6
					C1669.9,371.8,1693.1,394.9,1693.1,423.5L1693.1,423.5z"/>
			</g>
			<path class="st0" d="M1277.8,249.2c-2-39.8-36.3-70.4-76.2-70.4h-111.4V193c0,20.8,16.8,37.6,37.6,37.6h14.1v0h61.2
				c12.1,0,22.4,9.4,22.9,21.5c0.5,12.7-9.7,23.2-22.3,23.2H1142h-14.1c-20.8,0-37.6,16.8-37.6,37.6v88.3c0,14,10.9,26,24.9,26.5
				c14.7,0.5,26.8-11.3,26.8-25.9V327h61.8C1245.9,327,1279.9,291.8,1277.8,249.2z"/>
		</g>
		<g>
			<path class="st0" d="M497.2,334.5c90.5,0,165.2-68.6,175-156.5H408.4c-90.5,0-165.2,68.6-175,156.5H497.2z"/>
			<path class="st0" d="M408.4,571.7c-90.5,0-165.2,68.6-175,156.5h263.8c90.5,0,165.2-68.6,175-156.5H408.4z"/>
			<path class="st0" d="M408.4,531.3c-90.5,0-165.2-68.6-175-156.5h263.8c90.5,0,165.2,68.6,175,156.5H408.4z"/>
		</g>
	</g>
</g>
</svg>
